<?xml version="1.0" encoding="UTF-8" standalone="no"?>
<!-- Created with Inkscape (http://www.inkscape.org/) -->

<svg
   version="1.1"
   id="svg1"
   width="1080"
   height="1080"
   viewBox="0 0 1080 1080"
   sodipodi:docname="seuestilo.svg"
   inkscape:version="1.3.2 (091e20e, 2023-11-25, custom)"
   xmlns:inkscape="http://www.inkscape.org/namespaces/inkscape"
   xmlns:sodipodi="http://sodipodi.sourceforge.net/DTD/sodipodi-0.dtd"
   xmlns="http://www.w3.org/2000/svg"
   xmlns:svg="http://www.w3.org/2000/svg">
  <defs
     id="defs1" />
  <sodipodi:namedview
     id="namedview1"
     pagecolor="#ffffff"
     bordercolor="#000000"
     borderopacity="0.25"
     inkscape:showpageshadow="2"
     inkscape:pageopacity="0.0"
     inkscape:pagecheckerboard="0"
     inkscape:deskcolor="#d1d1d1"
     showgrid="false"
     inkscape:zoom="0.71944444"
     inkscape:cx="539.30502"
     inkscape:cy="540"
     inkscape:window-width="1920"
     inkscape:window-height="991"
     inkscape:window-x="-9"
     inkscape:window-y="-9"
     inkscape:window-maximized="1"
     inkscape:current-layer="g1" />
  <g
     inkscape:groupmode="layer"
     inkscape:label="Image"
     id="g1">
    <path
       style="fill:#000000"
       d="M 520.83299,669.44115 C 490.0669,665.23033 463.16518,653.65723 439.3776,634.39911 403.8756,605.65713 382.56059,564.6115 379.45081,519 l -0.71589,-10.5 20.55533,20.5171 c 17.6997,17.66678 20.85298,21.27881 22.69784,26 9.27312,23.73086 27.60298,46.11674 49.60776,60.58492 8.02714,5.27786 20.85796,11.72082 25.82308,12.96699 L 500,629.21682 V 618.3554 607.49399 l -56.75,-56.66938 c -31.2125,-31.16816 -58.222,-58.19803 -60.02111,-60.06638 l -3.27111,-3.39701 2.04501,-10.3754 c 4.68565,-23.77263 13.80993,-44.53913 28.93414,-65.85294 l 4.43694,-6.25275 59.31306,59.30678 L 534,523.4937 v 23.9998 23.9998 l -55.83915,-55.83246 -55.83914,-55.83247 -2.73084,8.26267 -2.73084,8.26267 58.56998,58.5763 L 534,593.5063 v 38.74685 c 0,36.28 -0.11142,38.73934 -1.75,38.62897 -0.9625,-0.0648 -6.10015,-0.71327 -11.41701,-1.44097 z M 550,596.84078 v -74.33502 l 58.60777,-58.25288 C 640.84205,432.2138 667.56298,406 667.98763,406 c 2.24117,0 14.87932,19.6284 21.24773,33 C 695.75202,452.68287 703,477.29586 703,485.74256 703,488.06332 693.46311,498.04219 643.5,548 L 584,607.4937 v 10.75315 c 0,5.91423 0.40288,10.75315 0.89529,10.75315 1.78785,0 15.03142,-6.04045 21.24088,-9.68806 24.10963,-14.16267 43.9526,-36.62786 53.86809,-60.98666 3.27675,-8.04978 3.64761,-8.49302 24.26506,-29 L 705.20678,508.5 704.54302,517 c -3.37363,43.20199 -19.35324,78.18505 -49.10808,107.50889 -24.35129,23.99858 -59.38197,40.94101 -92.93494,44.94759 -2.75,0.32838 -6.6875,0.84956 -8.75,1.15818 L 550,671.1758 Z M 666,475.77557 c 0,-2.87743 -4.24038,-14.86212 -5.151,-14.55841 -0.46643,0.15556 -17.94827,17.37667 -38.84853,38.26912 L 584,537.47256 v 11.00915 11.00914 L 625,518.5 c 22.55,-22.54497 41,-41.77096 41,-42.72443 z M 476.25,443.75103 419,386.49353 v -51.22152 -51.22152 l 29.25,28.92104 29.25,28.92103 32.25931,-32.19628 32.25931,-32.19628 32.21364,32.27068 32.21364,32.27068 28.77705,-28.76421 L 664,284.51293 v 51.49683 51.49682 L 607,444.5 l -57,56.99342 0.009,-24.49671 0.009,-24.49671 29.50751,-29.47758 29.50751,-29.47759 -33.76697,-33.7841 -33.76698,-33.7841 -8.27658,8.55427 c -4.85797,5.02096 -8.74247,8.26634 -9.40451,7.85718 -0.65284,-0.40348 -0.85238,-0.25124 -0.47373,0.36142 0.7417,1.2001 -18.98895,20.89936 -20.50835,20.47572 -0.54202,-0.15112 -0.73457,0.13122 -0.42789,0.62744 0.30668,0.49622 -5.73487,7.20941 -13.42567,14.91821 C 481.29247,386.47966 475,393.16955 475,393.63728 c 0,0.46773 13.28338,14.13934 29.51863,30.38136 l 29.51863,29.53093 -0.26863,23.72948 -0.26863,23.72948 z m -62.20449,-168.18358 -5.0696,-7.51283 4.62355,-6.77731 c 2.54295,-3.72752 4.94892,-6.90249 5.34659,-7.05549 0.39767,-0.153 2.81969,2.87488 5.38226,6.72863 l 4.65921,7.00681 -4.9362,7.56151 -4.93621,7.5615 z m 245.62264,-0.0202 -4.83184,-7.42694 4.86704,-7.55253 4.86703,-7.55253 4.71481,6.97687 c 2.59315,3.83728 4.71481,7.43925 4.71481,8.00437 0,0.79237 -8.93613,15.04821 -9.39672,14.99061 -0.0568,-0.007 -2.27761,-3.35503 -4.93513,-7.43985 z m -123.04724,-6.57405 -4.67252,-7.02682 4.90355,-7.60919 4.90356,-7.60919 5.04314,7.47361 5.04314,7.47362 -4.67089,7.14556 c -2.56899,3.93007 -4.94237,7.15314 -5.27417,7.1624 -0.33181,0.009 -2.70592,-3.14524 -5.27581,-7.00999 z"
       id="path1"
       sodipodi:nodetypes="ssscsssscccsscsscccccccccccsssccssssscssssscssssccssscccssccccccccccccccccccccccssssscssccccccsssccccscccssssscccccscs" />
  </g>
</svg>
