<svg width="21" height="21" viewBox="0 0 21 21" fill="none" xmlns="http://www.w3.org/2000/svg">
<path d="M16.8 16.8C15.6345 16.8 14.7 17.7345 14.7 18.9C14.7 19.457 14.9212 19.9911 15.3151 20.3849C15.7089 20.7787 16.243 21 16.8 21C17.357 21 17.8911 20.7787 18.2849 20.3849C18.6787 19.9911 18.9 19.457 18.9 18.9C18.9 18.343 18.6787 17.8089 18.2849 17.4151C17.8911 17.0212 17.357 16.8 16.8 16.8ZM0 0V2.1H2.1L5.88 10.0695L4.452 12.642C4.2945 12.936 4.2 13.2825 4.2 13.65C4.2 14.207 4.42125 14.7411 4.81508 15.1349C5.2089 15.5287 5.74304 15.75 6.3 15.75H18.9V13.65H6.741C6.67138 13.65 6.60461 13.6223 6.55538 13.5731C6.50616 13.5239 6.4785 13.4571 6.4785 13.3875C6.4785 13.335 6.489 13.293 6.51 13.2615L7.455 11.55H15.2775C16.065 11.55 16.758 11.109 17.115 10.4685L20.874 3.675C20.9475 3.507 21 3.3285 21 3.15C21 2.87152 20.8894 2.60445 20.6925 2.40754C20.4955 2.21062 20.2285 2.1 19.95 2.1H4.4205L3.4335 0M6.3 16.8C5.1345 16.8 4.2 17.7345 4.2 18.9C4.2 19.457 4.42125 19.9911 4.81508 20.3849C5.2089 20.7787 5.74304 21 6.3 21C6.85695 21 7.3911 20.7787 7.78492 20.3849C8.17875 19.9911 8.4 19.457 8.4 18.9C8.4 18.343 8.17875 17.8089 7.78492 17.4151C7.3911 17.0212 6.85695 16.8 6.3 16.8Z" fill="black"/>
</svg>
