<svg width="21" height="21" viewBox="0 0 21 21" fill="none" xmlns="http://www.w3.org/2000/svg">
<path d="M14.875 15.75C13.9038 15.75 13.125 16.5288 13.125 17.5C13.125 17.9641 13.3094 18.4092 13.6376 18.7374C13.9658 19.0656 14.4109 19.25 14.875 19.25C15.3391 19.25 15.7842 19.0656 16.1124 18.7374C16.4406 18.4092 16.625 17.9641 16.625 17.5C16.625 17.0359 16.4406 16.5908 16.1124 16.2626C15.7842 15.9344 15.3391 15.75 14.875 15.75ZM0.875 1.75V3.5H2.625L5.775 10.1413L4.585 12.285C4.45375 12.53 4.375 12.8188 4.375 13.125C4.375 13.5891 4.55937 14.0342 4.88756 14.3624C5.21575 14.6906 5.66087 14.875 6.125 14.875H16.625V13.125H6.4925C6.43448 13.125 6.37884 13.102 6.33782 13.0609C6.2968 13.0199 6.27375 12.9643 6.27375 12.9062C6.27375 12.8625 6.2825 12.8275 6.3 12.8013L7.0875 11.375H13.6062C14.2625 11.375 14.84 11.0075 15.1375 10.4738L18.27 4.8125C18.3312 4.6725 18.375 4.52375 18.375 4.375C18.375 4.14294 18.2828 3.92038 18.1187 3.75628C17.9546 3.59219 17.7321 3.5 17.5 3.5H4.55875L3.73625 1.75M6.125 15.75C5.15375 15.75 4.375 16.5288 4.375 17.5C4.375 17.9641 4.55937 18.4092 4.88756 18.7374C5.21575 19.0656 5.66087 19.25 6.125 19.25C6.58913 19.25 7.03425 19.0656 7.36244 18.7374C7.69063 18.4092 7.875 17.9641 7.875 17.5C7.875 17.0359 7.69063 16.5908 7.36244 16.2626C7.03425 15.9344 6.58913 15.75 6.125 15.75Z" fill="white"/>
</svg>
